<svg xmlns="http://www.w3.org/2000/svg" viewBox="0 0 512 512">
  <defs>
    <clipPath id="pin">
      <path d="M256 480 C256 480 144 340 144 220 C144 158 194 96 256 96 C318 96 368 158 368 220 C368 340 256 480 256 480Z"/>
    </clipPath>
  </defs>
  <!-- Left face (lighter tangerine) -->
  <path d="M256 480 C256 480 144 340 144 220 C144 158 194 96 256 96 L256 480Z" fill="#FF6B3D"/>
  <!-- Right face (darker) -->
  <path d="M256 96 C318 96 368 158 368 220 C368 340 256 480 256 480 L256 96Z" fill="#D94E20"/>
  <!-- Play triangle cutout -->
  <path d="M220 190 L220 280 L310 235 Z" fill="white"/>
  <!-- Highlight -->
  <ellipse cx="210" cy="165" rx="18" ry="12" fill="#FF9B7A" opacity="0.6"/>
</svg>
